<mxfile host="app.diagrams.net" modified="2023-08-17T13:34:39.307Z" agent="Mozilla/5.0 (Windows NT 10.0; Win64; x64) AppleWebKit/537.36 (KHTML, like Gecko) Chrome/115.0.0.0 Safari/537.36" etag="BilYotV373TIk9qQdw-a" version="21.6.2" type="device">
  <diagram name="Page-1" id="jmEsvy1WPWSMTM4AeXCA">
    <mxGraphModel dx="880" dy="470" grid="1" gridSize="10" guides="1" tooltips="1" connect="1" arrows="1" fold="1" page="1" pageScale="1" pageWidth="850" pageHeight="1100" math="0" shadow="0">
      <root>
        <mxCell id="0" />
        <mxCell id="1" parent="0" />
        <mxCell id="LNcnHEvKAmAIVd4qEZpE-1" value="Start" style="ellipse;whiteSpace=wrap;html=1;" vertex="1" parent="1">
          <mxGeometry x="50" y="60" width="120" height="60" as="geometry" />
        </mxCell>
        <mxCell id="LNcnHEvKAmAIVd4qEZpE-2" value="Open the excel file" style="rounded=0;whiteSpace=wrap;html=1;" vertex="1" parent="1">
          <mxGeometry x="230" y="60" width="150" height="60" as="geometry" />
        </mxCell>
        <mxCell id="LNcnHEvKAmAIVd4qEZpE-3" value="write the sum of column A + columnB on columnC" style="rounded=0;whiteSpace=wrap;html=1;" vertex="1" parent="1">
          <mxGeometry x="470" y="60" width="160" height="60" as="geometry" />
        </mxCell>
        <mxCell id="LNcnHEvKAmAIVd4qEZpE-4" value="End" style="ellipse;whiteSpace=wrap;html=1;" vertex="1" parent="1">
          <mxGeometry x="680" y="60" width="120" height="60" as="geometry" />
        </mxCell>
        <mxCell id="LNcnHEvKAmAIVd4qEZpE-5" value="&lt;b&gt;&lt;font style=&quot;font-size: 13px;&quot;&gt;Real Time Excel calculation&lt;/font&gt;&lt;/b&gt;" style="text;html=1;align=center;verticalAlign=middle;resizable=0;points=[];autosize=1;strokeColor=none;fillColor=none;" vertex="1" parent="1">
          <mxGeometry x="40" y="10" width="190" height="30" as="geometry" />
        </mxCell>
        <mxCell id="LNcnHEvKAmAIVd4qEZpE-6" value="excel and internal app" style="text;html=1;align=center;verticalAlign=middle;resizable=0;points=[];autosize=1;strokeColor=none;fillColor=none;" vertex="1" parent="1">
          <mxGeometry x="230" y="118" width="140" height="30" as="geometry" />
        </mxCell>
        <mxCell id="LNcnHEvKAmAIVd4qEZpE-7" value="excel and internal app" style="text;html=1;align=center;verticalAlign=middle;resizable=0;points=[];autosize=1;strokeColor=none;fillColor=none;" vertex="1" parent="1">
          <mxGeometry x="480" y="118" width="140" height="30" as="geometry" />
        </mxCell>
        <mxCell id="LNcnHEvKAmAIVd4qEZpE-8" value="" style="endArrow=none;dashed=1;html=1;rounded=0;entryX=1;entryY=1;entryDx=0;entryDy=0;exitX=-0.012;exitY=0.9;exitDx=0;exitDy=0;exitPerimeter=0;" edge="1" parent="1" source="LNcnHEvKAmAIVd4qEZpE-3" target="LNcnHEvKAmAIVd4qEZpE-3">
          <mxGeometry width="50" height="50" relative="1" as="geometry">
            <mxPoint x="400" y="250" as="sourcePoint" />
            <mxPoint x="450" y="200" as="targetPoint" />
            <Array as="points">
              <mxPoint x="470" y="150" />
              <mxPoint x="630" y="150" />
            </Array>
          </mxGeometry>
        </mxCell>
        <mxCell id="LNcnHEvKAmAIVd4qEZpE-9" value="" style="endArrow=none;dashed=1;html=1;rounded=0;entryX=1;entryY=1;entryDx=0;entryDy=0;exitX=0.014;exitY=0.1;exitDx=0;exitDy=0;exitPerimeter=0;" edge="1" parent="1" source="LNcnHEvKAmAIVd4qEZpE-6" target="LNcnHEvKAmAIVd4qEZpE-2">
          <mxGeometry width="50" height="50" relative="1" as="geometry">
            <mxPoint x="400" y="250" as="sourcePoint" />
            <mxPoint x="450" y="200" as="targetPoint" />
            <Array as="points">
              <mxPoint x="230" y="150" />
              <mxPoint x="380" y="150" />
            </Array>
          </mxGeometry>
        </mxCell>
        <mxCell id="LNcnHEvKAmAIVd4qEZpE-10" value="" style="endArrow=classic;html=1;rounded=0;entryX=-0.006;entryY=0.617;entryDx=0;entryDy=0;entryPerimeter=0;exitX=0.993;exitY=0.617;exitDx=0;exitDy=0;exitPerimeter=0;" edge="1" parent="1" source="LNcnHEvKAmAIVd4qEZpE-2" target="LNcnHEvKAmAIVd4qEZpE-3">
          <mxGeometry width="50" height="50" relative="1" as="geometry">
            <mxPoint x="400" y="250" as="sourcePoint" />
            <mxPoint x="450" y="200" as="targetPoint" />
          </mxGeometry>
        </mxCell>
        <mxCell id="LNcnHEvKAmAIVd4qEZpE-12" value="" style="endArrow=classic;html=1;rounded=0;entryX=0;entryY=0.5;entryDx=0;entryDy=0;" edge="1" parent="1" target="LNcnHEvKAmAIVd4qEZpE-4">
          <mxGeometry width="50" height="50" relative="1" as="geometry">
            <mxPoint x="640" y="90" as="sourcePoint" />
            <mxPoint x="450" y="200" as="targetPoint" />
          </mxGeometry>
        </mxCell>
        <mxCell id="LNcnHEvKAmAIVd4qEZpE-13" value="" style="endArrow=classic;html=1;rounded=0;entryX=0;entryY=0.5;entryDx=0;entryDy=0;exitX=1;exitY=0.5;exitDx=0;exitDy=0;" edge="1" parent="1" source="LNcnHEvKAmAIVd4qEZpE-1" target="LNcnHEvKAmAIVd4qEZpE-2">
          <mxGeometry width="50" height="50" relative="1" as="geometry">
            <mxPoint x="400" y="250" as="sourcePoint" />
            <mxPoint x="450" y="200" as="targetPoint" />
          </mxGeometry>
        </mxCell>
        <mxCell id="LNcnHEvKAmAIVd4qEZpE-14" value="Start" style="ellipse;whiteSpace=wrap;html=1;" vertex="1" parent="1">
          <mxGeometry x="50" y="255" width="120" height="60" as="geometry" />
        </mxCell>
        <mxCell id="LNcnHEvKAmAIVd4qEZpE-15" value="&lt;font size=&quot;1&quot; style=&quot;&quot;&gt;&lt;b style=&quot;font-size: 13px;&quot;&gt;Excel Formulas calculation&lt;/b&gt;&lt;/font&gt;" style="text;html=1;align=center;verticalAlign=middle;resizable=0;points=[];autosize=1;strokeColor=none;fillColor=none;" vertex="1" parent="1">
          <mxGeometry x="40" y="168" width="190" height="30" as="geometry" />
        </mxCell>
        <mxCell id="LNcnHEvKAmAIVd4qEZpE-16" value="Fill the range of column c with sums of rows in columnA +rows in columnB" style="rounded=0;whiteSpace=wrap;html=1;" vertex="1" parent="1">
          <mxGeometry x="445" y="250" width="210" height="60" as="geometry" />
        </mxCell>
        <mxCell id="LNcnHEvKAmAIVd4qEZpE-17" value="Open excel file" style="rounded=0;whiteSpace=wrap;html=1;" vertex="1" parent="1">
          <mxGeometry x="240" y="250" width="160" height="60" as="geometry" />
        </mxCell>
        <mxCell id="LNcnHEvKAmAIVd4qEZpE-18" value="End" style="ellipse;whiteSpace=wrap;html=1;" vertex="1" parent="1">
          <mxGeometry x="700" y="240" width="120" height="70" as="geometry" />
        </mxCell>
        <mxCell id="LNcnHEvKAmAIVd4qEZpE-19" value="" style="endArrow=classic;html=1;rounded=0;entryX=0;entryY=0.5;entryDx=0;entryDy=0;exitX=1;exitY=0.5;exitDx=0;exitDy=0;" edge="1" parent="1" source="LNcnHEvKAmAIVd4qEZpE-17" target="LNcnHEvKAmAIVd4qEZpE-16">
          <mxGeometry width="50" height="50" relative="1" as="geometry">
            <mxPoint x="400" y="250" as="sourcePoint" />
            <mxPoint x="450" y="200" as="targetPoint" />
          </mxGeometry>
        </mxCell>
        <mxCell id="LNcnHEvKAmAIVd4qEZpE-20" value="" style="endArrow=classic;html=1;rounded=0;entryX=-0.017;entryY=0.629;entryDx=0;entryDy=0;exitX=1;exitY=0.5;exitDx=0;exitDy=0;entryPerimeter=0;" edge="1" parent="1" source="LNcnHEvKAmAIVd4qEZpE-16" target="LNcnHEvKAmAIVd4qEZpE-18">
          <mxGeometry width="50" height="50" relative="1" as="geometry">
            <mxPoint x="400" y="250" as="sourcePoint" />
            <mxPoint x="450" y="200" as="targetPoint" />
          </mxGeometry>
        </mxCell>
        <mxCell id="LNcnHEvKAmAIVd4qEZpE-21" value="" style="endArrow=classic;html=1;rounded=0;entryX=0;entryY=0.5;entryDx=0;entryDy=0;exitX=1;exitY=0.4;exitDx=0;exitDy=0;exitPerimeter=0;" edge="1" parent="1" source="LNcnHEvKAmAIVd4qEZpE-14" target="LNcnHEvKAmAIVd4qEZpE-17">
          <mxGeometry width="50" height="50" relative="1" as="geometry">
            <mxPoint x="400" y="250" as="sourcePoint" />
            <mxPoint x="450" y="200" as="targetPoint" />
          </mxGeometry>
        </mxCell>
        <mxCell id="LNcnHEvKAmAIVd4qEZpE-22" value="excel and internal app" style="text;html=1;align=center;verticalAlign=middle;resizable=0;points=[];autosize=1;strokeColor=none;fillColor=none;" vertex="1" parent="1">
          <mxGeometry x="250" y="308" width="140" height="30" as="geometry" />
        </mxCell>
        <mxCell id="LNcnHEvKAmAIVd4qEZpE-23" value="excel and internal app" style="text;html=1;align=center;verticalAlign=middle;resizable=0;points=[];autosize=1;strokeColor=none;fillColor=none;" vertex="1" parent="1">
          <mxGeometry x="490" y="310" width="140" height="30" as="geometry" />
        </mxCell>
        <mxCell id="LNcnHEvKAmAIVd4qEZpE-24" value="" style="endArrow=none;dashed=1;html=1;rounded=0;entryX=1;entryY=1;entryDx=0;entryDy=0;exitX=0;exitY=1;exitDx=0;exitDy=0;" edge="1" parent="1" source="LNcnHEvKAmAIVd4qEZpE-16" target="LNcnHEvKAmAIVd4qEZpE-16">
          <mxGeometry width="50" height="50" relative="1" as="geometry">
            <mxPoint x="400" y="250" as="sourcePoint" />
            <mxPoint x="450" y="200" as="targetPoint" />
            <Array as="points">
              <mxPoint x="445" y="340" />
              <mxPoint x="655" y="340" />
            </Array>
          </mxGeometry>
        </mxCell>
        <mxCell id="LNcnHEvKAmAIVd4qEZpE-25" value="" style="endArrow=none;dashed=1;html=1;rounded=0;entryX=1;entryY=1;entryDx=0;entryDy=0;exitX=0;exitY=1;exitDx=0;exitDy=0;" edge="1" parent="1" source="LNcnHEvKAmAIVd4qEZpE-17" target="LNcnHEvKAmAIVd4qEZpE-17">
          <mxGeometry width="50" height="50" relative="1" as="geometry">
            <mxPoint x="400" y="250" as="sourcePoint" />
            <mxPoint x="450" y="200" as="targetPoint" />
            <Array as="points">
              <mxPoint x="240" y="340" />
              <mxPoint x="400" y="340" />
            </Array>
          </mxGeometry>
        </mxCell>
        <mxCell id="LNcnHEvKAmAIVd4qEZpE-26" value="&lt;b&gt;&lt;font style=&quot;font-size: 13px;&quot;&gt;Excel Closed calculation&lt;/font&gt;&lt;/b&gt;" style="text;html=1;align=center;verticalAlign=middle;resizable=0;points=[];autosize=1;strokeColor=none;fillColor=none;" vertex="1" parent="1">
          <mxGeometry x="50" y="410" width="180" height="30" as="geometry" />
        </mxCell>
        <mxCell id="LNcnHEvKAmAIVd4qEZpE-27" value="Start" style="ellipse;whiteSpace=wrap;html=1;" vertex="1" parent="1">
          <mxGeometry x="60" y="490" width="120" height="60" as="geometry" />
        </mxCell>
        <mxCell id="LNcnHEvKAmAIVd4qEZpE-28" value="Read excel into a data table and add column c to it" style="rounded=0;whiteSpace=wrap;html=1;" vertex="1" parent="1">
          <mxGeometry x="230" y="490" width="170" height="60" as="geometry" />
        </mxCell>
        <mxCell id="LNcnHEvKAmAIVd4qEZpE-29" value="Add the content of rows in columnA to rows in columnB" style="rounded=0;whiteSpace=wrap;html=1;" vertex="1" parent="1">
          <mxGeometry x="460" y="490" width="190" height="60" as="geometry" />
        </mxCell>
        <mxCell id="LNcnHEvKAmAIVd4qEZpE-30" value="End" style="ellipse;whiteSpace=wrap;html=1;" vertex="1" parent="1">
          <mxGeometry x="720" y="610" width="120" height="50" as="geometry" />
        </mxCell>
        <mxCell id="LNcnHEvKAmAIVd4qEZpE-31" value="Save datatable&amp;nbsp; into a new excel file&amp;nbsp; &amp;nbsp;" style="rounded=0;whiteSpace=wrap;html=1;" vertex="1" parent="1">
          <mxGeometry x="710" y="490" width="160" height="60" as="geometry" />
        </mxCell>
        <mxCell id="LNcnHEvKAmAIVd4qEZpE-32" value="" style="endArrow=classic;html=1;rounded=0;entryX=0.5;entryY=0;entryDx=0;entryDy=0;" edge="1" parent="1" target="LNcnHEvKAmAIVd4qEZpE-30">
          <mxGeometry width="50" height="50" relative="1" as="geometry">
            <mxPoint x="780" y="570" as="sourcePoint" />
            <mxPoint x="450" y="700" as="targetPoint" />
          </mxGeometry>
        </mxCell>
        <mxCell id="LNcnHEvKAmAIVd4qEZpE-33" value="" style="endArrow=classic;html=1;rounded=0;entryX=0;entryY=0.5;entryDx=0;entryDy=0;exitX=1;exitY=0.5;exitDx=0;exitDy=0;" edge="1" parent="1" source="LNcnHEvKAmAIVd4qEZpE-29" target="LNcnHEvKAmAIVd4qEZpE-31">
          <mxGeometry width="50" height="50" relative="1" as="geometry">
            <mxPoint x="400" y="750" as="sourcePoint" />
            <mxPoint x="450" y="700" as="targetPoint" />
          </mxGeometry>
        </mxCell>
        <mxCell id="LNcnHEvKAmAIVd4qEZpE-34" value="" style="endArrow=classic;html=1;rounded=0;entryX=0;entryY=0.5;entryDx=0;entryDy=0;exitX=1;exitY=0.5;exitDx=0;exitDy=0;" edge="1" parent="1" source="LNcnHEvKAmAIVd4qEZpE-28" target="LNcnHEvKAmAIVd4qEZpE-29">
          <mxGeometry width="50" height="50" relative="1" as="geometry">
            <mxPoint x="400" y="750" as="sourcePoint" />
            <mxPoint x="450" y="700" as="targetPoint" />
          </mxGeometry>
        </mxCell>
        <mxCell id="LNcnHEvKAmAIVd4qEZpE-35" value="" style="endArrow=classic;html=1;rounded=0;entryX=0;entryY=0.5;entryDx=0;entryDy=0;exitX=1;exitY=0.5;exitDx=0;exitDy=0;" edge="1" parent="1" source="LNcnHEvKAmAIVd4qEZpE-27" target="LNcnHEvKAmAIVd4qEZpE-28">
          <mxGeometry width="50" height="50" relative="1" as="geometry">
            <mxPoint x="400" y="750" as="sourcePoint" />
            <mxPoint x="450" y="700" as="targetPoint" />
          </mxGeometry>
        </mxCell>
        <mxCell id="LNcnHEvKAmAIVd4qEZpE-36" value="" style="endArrow=none;dashed=1;html=1;rounded=0;entryX=1;entryY=1;entryDx=0;entryDy=0;exitX=0;exitY=1;exitDx=0;exitDy=0;" edge="1" parent="1">
          <mxGeometry width="50" height="50" relative="1" as="geometry">
            <mxPoint x="230" y="550" as="sourcePoint" />
            <mxPoint x="390" y="550" as="targetPoint" />
            <Array as="points">
              <mxPoint x="230" y="580" />
              <mxPoint x="390" y="580" />
            </Array>
          </mxGeometry>
        </mxCell>
        <mxCell id="LNcnHEvKAmAIVd4qEZpE-37" value="" style="endArrow=none;dashed=1;html=1;rounded=0;entryX=1;entryY=1;entryDx=0;entryDy=0;exitX=0;exitY=1;exitDx=0;exitDy=0;" edge="1" parent="1">
          <mxGeometry width="50" height="50" relative="1" as="geometry">
            <mxPoint x="475" y="550" as="sourcePoint" />
            <mxPoint x="635" y="550" as="targetPoint" />
            <Array as="points">
              <mxPoint x="475" y="580" />
              <mxPoint x="635" y="580" />
            </Array>
          </mxGeometry>
        </mxCell>
        <mxCell id="LNcnHEvKAmAIVd4qEZpE-38" value="" style="endArrow=none;dashed=1;html=1;rounded=0;entryX=1;entryY=1;entryDx=0;entryDy=0;exitX=0;exitY=1;exitDx=0;exitDy=0;" edge="1" parent="1">
          <mxGeometry width="50" height="50" relative="1" as="geometry">
            <mxPoint x="710" y="540" as="sourcePoint" />
            <mxPoint x="870" y="540" as="targetPoint" />
            <Array as="points">
              <mxPoint x="710" y="570" />
              <mxPoint x="870" y="570" />
            </Array>
          </mxGeometry>
        </mxCell>
        <mxCell id="LNcnHEvKAmAIVd4qEZpE-39" value="excel and internal app" style="text;html=1;align=center;verticalAlign=middle;resizable=0;points=[];autosize=1;strokeColor=none;fillColor=none;" vertex="1" parent="1">
          <mxGeometry x="230" y="550" width="140" height="30" as="geometry" />
        </mxCell>
        <mxCell id="LNcnHEvKAmAIVd4qEZpE-40" value="excel and internal app" style="text;html=1;align=center;verticalAlign=middle;resizable=0;points=[];autosize=1;strokeColor=none;fillColor=none;" vertex="1" parent="1">
          <mxGeometry x="720" y="548" width="140" height="30" as="geometry" />
        </mxCell>
        <mxCell id="LNcnHEvKAmAIVd4qEZpE-41" value="internal app" style="text;html=1;align=center;verticalAlign=middle;resizable=0;points=[];autosize=1;strokeColor=none;fillColor=none;" vertex="1" parent="1">
          <mxGeometry x="505" y="548" width="90" height="30" as="geometry" />
        </mxCell>
      </root>
    </mxGraphModel>
  </diagram>
</mxfile>
